<svg xmlns="http://www.w3.org/2000/svg" width="37.778" height="28.945" viewBox="0 0 37.778 28.945">
  <g id="Exam" transform="translate(0.561)">
    <g id="Group_86971" data-name="Group 86971" transform="translate(0 14.208)">
      <path id="Path_81805" data-name="Path 81805" d="M51.017,64.289a1.069,1.069,0,0,0-.935-.051,1.3,1.3,0,0,0-.69.731c-.177.429-4.428,10.562-16,10.562s-15.808-10.1-16-10.562a1.309,1.309,0,0,0-.69-.732,1.073,1.073,0,0,0-.936.047,1.534,1.534,0,0,0-.589,1.892c.2.5,5.052,12.213,18.213,12.213S51.4,66.676,51.606,66.175a1.534,1.534,0,0,0-.589-1.886Z" transform="translate(-15.061 -64.151)" fill="#e7475e" stroke="#e7475e" stroke-miterlimit="10" stroke-width="1"/>
    </g>
    <g id="Group_86969" data-name="Group 86969" transform="translate(1.638)">
      <path id="Path_81806" data-name="Path 81806" d="M20.235,33.505H7.193a4.443,4.443,0,0,0,1.35,3.026,4.177,4.177,0,0,0,2.96,1.094,3.686,3.686,0,0,0,3.579-2.157h4.862a8.134,8.134,0,0,1-2.96,4.233,8.64,8.64,0,0,1-5.409,1.672,9.3,9.3,0,0,1-4.6-1.145,8.031,8.031,0,0,1-3.19-3.236,9.923,9.923,0,0,1-1.166-4.821,10.1,10.1,0,0,1,1.13-4.862A7.847,7.847,0,0,1,6.9,24.068a9.463,9.463,0,0,1,4.673-1.13,9.422,9.422,0,0,1,4.555,1.094,7.745,7.745,0,0,1,3.124,3.108,9.407,9.407,0,0,1,1.109,4.6A10.6,10.6,0,0,1,20.235,33.505ZM15.7,30.474a3.579,3.579,0,0,0-1.258-2.786,4.458,4.458,0,0,0-3-1.022,4.09,4.09,0,0,0-2.817,1.022,4.468,4.468,0,0,0-1.4,2.817Z" transform="translate(-2.616 -22.936)" fill="#e7475e"/>
    </g>
    <g id="Group_86970" data-name="Group 86970" transform="translate(15.045 0.293)">
      <path id="Path_81807" data-name="Path 81807" d="M51.719,41.352l-3.65-5.542-3.257,5.542H39.961L45.815,32.4,39.92,23.51h5.087l3.645,5.506,3.287-5.506H56.77L50.9,32.4l5.93,8.952Z" transform="translate(-39.92 -23.51)" fill="#248888"/>
    </g>
  </g>
</svg>
